<svg id="レイヤー_1" data-name="レイヤー 1" xmlns="http://www.w3.org/2000/svg" viewBox="0 0 185.9 20.64"><defs><style>.cls-1{fill:#fff;}</style></defs><title>logo</title><path class="cls-1" d="M2.47,13.65,10.56,4h-7a1.64,1.64,0,0,1-1.1-.32,1.07,1.07,0,0,1-.37-.85,1.14,1.14,0,0,1,.37-.89,1.59,1.59,0,0,1,1.1-.34h9q1.74,0,1.74,1.62A2.35,2.35,0,0,1,14,4.43a16.28,16.28,0,0,1-1.17,1.49l-7.57,9h8.34a1.75,1.75,0,0,1,1.11.31,1.07,1.07,0,0,1,.36.85,1.18,1.18,0,0,1-.36.91,1.64,1.64,0,0,1-1.11.33H3.39a2.34,2.34,0,0,1-1.57-.47A1.59,1.59,0,0,1,1.3,15.6a1.53,1.53,0,0,1,.08-.49,2.55,2.55,0,0,1,.23-.43l.41-.5Z" transform="translate(-1.3 -1.3)"/><path class="cls-1" d="M24.31,15.93a9.08,9.08,0,0,1-2.06,1.25,5.83,5.83,0,0,1-2.23.41,4.19,4.19,0,0,1-2-.45,3.23,3.23,0,0,1-1.32-1.21,3.16,3.16,0,0,1-.46-1.65,3,3,0,0,1,.76-2,3.78,3.78,0,0,1,2.1-1.14l1.39-.29,1.89-.41c.53-.13,1.1-.28,1.71-.46a3.06,3.06,0,0,0-.46-1.7,2.11,2.11,0,0,0-1.72-.55A3.55,3.55,0,0,0,20.25,8a2.74,2.74,0,0,0-1,.93,9.15,9.15,0,0,1-.57.82c-.11.14-.35.2-.72.2a1.2,1.2,0,0,1-.85-.32,1,1,0,0,1-.36-.81,2.46,2.46,0,0,1,.55-1.5A3.81,3.81,0,0,1,19,6.12a7.63,7.63,0,0,1,2.89-.48,8.23,8.23,0,0,1,3,.46,2.86,2.86,0,0,1,1.57,1.44A6.44,6.44,0,0,1,27,10.17v1.75c0,.48,0,1,0,1.6a5.67,5.67,0,0,0,.28,1.72,5.45,5.45,0,0,1,.27,1.16,1.09,1.09,0,0,1-.42.82,1.49,1.49,0,0,1-1,.37,1.29,1.29,0,0,1-.89-.43A6.29,6.29,0,0,1,24.31,15.93Zm-.2-4.24a13.05,13.05,0,0,1-1.87.5l-1.7.39a2.2,2.2,0,0,0-.9.48,1.24,1.24,0,0,0-.43,1,1.47,1.47,0,0,0,.5,1.13,1.89,1.89,0,0,0,1.32.47,3.39,3.39,0,0,0,1.61-.39,2.53,2.53,0,0,0,1.08-1,4.54,4.54,0,0,0,.39-2.19Z" transform="translate(-1.3 -1.3)"/><path class="cls-1" d="M37.27,16.25,34.69,12,33.1,13.5v2.33a1.77,1.77,0,0,1-.45,1.3,1.39,1.39,0,0,1-1,.46,1.33,1.33,0,0,1-1.06-.45,2,2,0,0,1-.39-1.33V3.3a2.5,2.5,0,0,1,.38-1.49,1.25,1.25,0,0,1,1.07-.51,1.36,1.36,0,0,1,1.08.47,2,2,0,0,1,.4,1.36v7.11l3.29-3.46a7.94,7.94,0,0,1,.94-.88A1.41,1.41,0,0,1,39,6a1.16,1.16,0,0,1,.37.88c0,.43-.4,1-1.19,1.72L36.64,10l3,4.72c.22.35.38.62.48.8a1.23,1.23,0,0,1,.14.52,1.57,1.57,0,0,1-.38,1.11,1.3,1.3,0,0,1-1,.4,1.13,1.13,0,0,1-.83-.29A6.75,6.75,0,0,1,37.27,16.25Z" transform="translate(-1.3 -1.3)"/><path class="cls-1" d="M52.72,11.63A6.7,6.7,0,0,1,52.31,14,5.26,5.26,0,0,1,51.13,16a5.08,5.08,0,0,1-1.85,1.21,6.94,6.94,0,0,1-4.81,0,5.41,5.41,0,0,1-1.84-1.23A5.26,5.26,0,0,1,41.45,14,6.89,6.89,0,0,1,41,11.63a7.06,7.06,0,0,1,.41-2.44A5.35,5.35,0,0,1,42.62,7.3a5.22,5.22,0,0,1,1.85-1.21,7.1,7.1,0,0,1,4.81,0,5.24,5.24,0,0,1,3,3.12A6.94,6.94,0,0,1,52.72,11.63Zm-2.94,0A4.4,4.4,0,0,0,49,8.83a2.76,2.76,0,0,0-3.64-.55,2.92,2.92,0,0,0-1,1.32,5.46,5.46,0,0,0-.35,2,5.23,5.23,0,0,0,.35,2,2.8,2.8,0,0,0,1,1.31,2.54,2.54,0,0,0,1.53.46,2.57,2.57,0,0,0,2.12-1A4.35,4.35,0,0,0,49.78,11.63Z" transform="translate(-1.3 -1.3)"/><path class="cls-1" d="M64.47,13.75a3.4,3.4,0,0,1-2.33,3.39,7.77,7.77,0,0,1-2.81.45,6.88,6.88,0,0,1-2.71-.48A4,4,0,0,1,55,15.9a2.45,2.45,0,0,1-.54-1.46,1.13,1.13,0,0,1,.34-.83,1.22,1.22,0,0,1,.87-.34,1,1,0,0,1,.71.23,2.35,2.35,0,0,1,.47.63,3.32,3.32,0,0,0,1.08,1.17,3.25,3.25,0,0,0,1.72.39,2.47,2.47,0,0,0,1.44-.39,1.11,1.11,0,0,0,.57-.9A1.23,1.23,0,0,0,61,13.27a7.22,7.22,0,0,0-1.93-.68,15.24,15.24,0,0,1-2.46-.79,3.86,3.86,0,0,1-1.52-1.09,2.48,2.48,0,0,1-.57-1.66,3,3,0,0,1,.52-1.67,3.6,3.6,0,0,1,1.56-1.25,6,6,0,0,1,2.47-.46,8.09,8.09,0,0,1,2,.23,5,5,0,0,1,1.51.64,2.93,2.93,0,0,1,.93.88,1.7,1.7,0,0,1,.31.94,1.09,1.09,0,0,1-.34.83,1.34,1.34,0,0,1-1,.32,1.17,1.17,0,0,1-.76-.26,4.61,4.61,0,0,1-.73-.77,2.56,2.56,0,0,0-.78-.69,2.5,2.5,0,0,0-1.23-.26,2.44,2.44,0,0,0-1.32.34,1,1,0,0,0-.53.85.9.9,0,0,0,.39.75,3.25,3.25,0,0,0,1,.49c.44.13,1,.29,1.81.47a10,10,0,0,1,2.23.8A3.8,3.8,0,0,1,64,12.32,2.47,2.47,0,0,1,64.47,13.75Z" transform="translate(-1.3 -1.3)"/><path class="cls-1" d="M69.82,3.09V7.44a6.3,6.3,0,0,1,1.09-1,4.16,4.16,0,0,1,1.18-.57,5.14,5.14,0,0,1,1.39-.18,4,4,0,0,1,2,.47,3.39,3.39,0,0,1,1.36,1.37,3.52,3.52,0,0,1,.41,1.18,8.36,8.36,0,0,1,.11,1.5v5.62a1.94,1.94,0,0,1-.4,1.33,1.37,1.37,0,0,1-1.07.45c-1,0-1.45-.6-1.45-1.78v-5A4.52,4.52,0,0,0,74,8.69a1.65,1.65,0,0,0-1.59-.76A2.37,2.37,0,0,0,71,8.38a2.63,2.63,0,0,0-.94,1.22,7.64,7.64,0,0,0-.24,2.33v3.88a2,2,0,0,1-.39,1.32,1.34,1.34,0,0,1-1.09.46c-1,0-1.45-.6-1.45-1.78V3.09a2,2,0,0,1,.38-1.34,1.33,1.33,0,0,1,1.07-.45,1.36,1.36,0,0,1,1.09.45A2,2,0,0,1,69.82,3.09Z" transform="translate(-1.3 -1.3)"/><path class="cls-1" d="M81.73,4.3a1.51,1.51,0,0,1-1-.38,1.32,1.32,0,0,1-.44-1.06,1.3,1.3,0,0,1,.45-1,1.53,1.53,0,0,1,2,0,1.29,1.29,0,0,1,.45,1.06,1.36,1.36,0,0,1-.43,1.06A1.52,1.52,0,0,1,81.73,4.3Zm1.45,3v8.48a1.9,1.9,0,0,1-.42,1.33,1.4,1.4,0,0,1-1.07.45,1.32,1.32,0,0,1-1-.46,2,2,0,0,1-.41-1.32V7.42a1.87,1.87,0,0,1,.41-1.31,1.3,1.3,0,0,1,1-.44,1.4,1.4,0,0,1,1.07.44A1.69,1.69,0,0,1,83.18,7.33Z" transform="translate(-1.3 -1.3)"/><path class="cls-1" d="M105.33,12.35A4.28,4.28,0,0,1,105,14a6,6,0,0,1-3.2,3.09,7.29,7.29,0,0,1-2.88.53,10,10,0,0,1-2.27-.24,6.27,6.27,0,0,1-1.85-.73,6.48,6.48,0,0,1-1.53-1.32,7.46,7.46,0,0,1-1.06-1.66,7.94,7.94,0,0,1-.66-2,10.42,10.42,0,0,1-.22-2.21,9.84,9.84,0,0,1,.55-3.41,7.37,7.37,0,0,1,1.58-2.57,7,7,0,0,1,2.42-1.63,7.86,7.86,0,0,1,3-.56,7.38,7.38,0,0,1,3.41.77A6.2,6.2,0,0,1,104.49,4a3.73,3.73,0,0,1,.79,2.12,1.41,1.41,0,0,1-.38,1,1.23,1.23,0,0,1-.94.42,1.32,1.32,0,0,1-.92-.29,4.11,4.11,0,0,1-.68-1,4.79,4.79,0,0,0-1.46-1.75,3.59,3.59,0,0,0-2.08-.58,3.8,3.8,0,0,0-3.14,1.49,6.82,6.82,0,0,0-1.16,4.25A7.93,7.93,0,0,0,95,12.63a3.92,3.92,0,0,0,1.47,1.82,4,4,0,0,0,2.21.6,3.82,3.82,0,0,0,2.32-.68,4,4,0,0,0,1.44-2,3.23,3.23,0,0,1,.5-1,1.16,1.16,0,0,1,1-.39,1.34,1.34,0,0,1,1,.4A1.32,1.32,0,0,1,105.33,12.35Z" transform="translate(-1.3 -1.3)"/><path class="cls-1" d="M110.86,3.09V7.44a6,6,0,0,1,1.09-1,4,4,0,0,1,1.17-.57,5.19,5.19,0,0,1,1.39-.18,4,4,0,0,1,2,.47,3.33,3.33,0,0,1,1.36,1.37,3.32,3.32,0,0,1,.42,1.18,9.39,9.39,0,0,1,.11,1.5v5.62a2,2,0,0,1-.4,1.33,1.37,1.37,0,0,1-1.07.45c-1,0-1.45-.6-1.45-1.78v-5A4.52,4.52,0,0,0,115,8.69a1.65,1.65,0,0,0-1.59-.76,2.38,2.38,0,0,0-1.42.45,2.7,2.7,0,0,0-.94,1.22,8.07,8.07,0,0,0-.23,2.33v3.88a2,2,0,0,1-.39,1.32,1.36,1.36,0,0,1-1.09.46c-1,0-1.45-.6-1.45-1.78V3.09a2,2,0,0,1,.38-1.34,1.32,1.32,0,0,1,1.07-.45,1.39,1.39,0,0,1,1.09.45A2,2,0,0,1,110.86,3.09Z" transform="translate(-1.3 -1.3)"/><path class="cls-1" d="M128.69,15.93a8.87,8.87,0,0,1-2.06,1.25,5.83,5.83,0,0,1-2.23.41,4.19,4.19,0,0,1-2-.45,3.14,3.14,0,0,1-1.31-1.21,3.07,3.07,0,0,1-.47-1.65,3,3,0,0,1,.77-2,3.75,3.75,0,0,1,2.09-1.14l1.39-.29,1.89-.41c.53-.13,1.1-.28,1.72-.46a3.05,3.05,0,0,0-.47-1.7,2.1,2.1,0,0,0-1.71-.55,3.57,3.57,0,0,0-1.69.32,2.74,2.74,0,0,0-1,.93,9.15,9.15,0,0,1-.57.82c-.11.14-.35.2-.72.2a1.22,1.22,0,0,1-.85-.32,1,1,0,0,1-.36-.81,2.46,2.46,0,0,1,.55-1.5,3.79,3.79,0,0,1,1.71-1.2,7.55,7.55,0,0,1,2.89-.48,8.3,8.3,0,0,1,3,.46,2.84,2.84,0,0,1,1.56,1.44,6.43,6.43,0,0,1,.46,2.63c0,.68,0,1.27,0,1.75s0,1,0,1.6a6,6,0,0,0,.28,1.72,5.45,5.45,0,0,1,.27,1.16,1.09,1.09,0,0,1-.42.82,1.44,1.44,0,0,1-1,.37,1.31,1.31,0,0,1-.9-.43A6.29,6.29,0,0,1,128.69,15.93Zm-.19-4.24a13.65,13.65,0,0,1-1.88.5l-1.7.39a2.2,2.2,0,0,0-.9.48,1.24,1.24,0,0,0-.43,1,1.5,1.5,0,0,0,.5,1.13,1.89,1.89,0,0,0,1.32.47,3.39,3.39,0,0,0,1.61-.39,2.53,2.53,0,0,0,1.08-1,4.52,4.52,0,0,0,.4-2.19Z" transform="translate(-1.3 -1.3)"/><path class="cls-1" d="M136.77,7.31v.35a5.74,5.74,0,0,1,1.72-1.5,4.27,4.27,0,0,1,2-.47,4.72,4.72,0,0,1,2.49.69,4.83,4.83,0,0,1,1.8,2.05,7.11,7.11,0,0,1,.66,3.18,7.82,7.82,0,0,1-.38,2.48A5.68,5.68,0,0,1,144,16a4.55,4.55,0,0,1-1.57,1.19,4.77,4.77,0,0,1-2,.41,4,4,0,0,1-2.11-.51,5.86,5.86,0,0,1-1.63-1.48V20c0,1.28-.47,1.93-1.41,1.93a1.12,1.12,0,0,1-1.09-.5A3.13,3.13,0,0,1,134,20V7.33a1.85,1.85,0,0,1,.36-1.25,1.26,1.26,0,0,1,1-.41,1.33,1.33,0,0,1,1,.42A1.74,1.74,0,0,1,136.77,7.31Zm5.75,4.26a5,5,0,0,0-.36-2,3,3,0,0,0-1-1.28,2.39,2.39,0,0,0-1.39-.44,2.64,2.64,0,0,0-2,1,4.22,4.22,0,0,0-.83,2.82,4,4,0,0,0,.83,2.72,2.57,2.57,0,0,0,2,1,2.37,2.37,0,0,0,1.35-.42,2.86,2.86,0,0,0,1-1.28A5,5,0,0,0,142.52,11.57Z" transform="translate(-1.3 -1.3)"/><path class="cls-1" d="M148,5.92h.32V4.16c0-.47,0-.84,0-1.11a1.75,1.75,0,0,1,.21-.69,1.31,1.31,0,0,1,.5-.49,1.34,1.34,0,0,1,.72-.19,1.47,1.47,0,0,1,1,.42,1.28,1.28,0,0,1,.38.68,6.55,6.55,0,0,1,.08,1.14v2h1.07a1.35,1.35,0,0,1,.95.3,1,1,0,0,1,.33.76.84.84,0,0,1-.47.82,3,3,0,0,1-1.33.24h-.55v5.39a7.38,7.38,0,0,0,.05,1.06,1,1,0,0,0,.25.6.87.87,0,0,0,.69.23,3.61,3.61,0,0,0,.69-.09,3.81,3.81,0,0,1,.69-.09.87.87,0,0,1,.64.28,1,1,0,0,1,.29.71,1.17,1.17,0,0,1-.78,1.08,5.18,5.18,0,0,1-2.22.38,4,4,0,0,1-2.09-.46,2.13,2.13,0,0,1-.92-1.28,8.49,8.49,0,0,1-.23-2.18V8h-.38a1.41,1.41,0,0,1-1-.3,1,1,0,0,1-.33-.76.93.93,0,0,1,.35-.76A1.5,1.5,0,0,1,148,5.92Z" transform="translate(-1.3 -1.3)"/><path class="cls-1" d="M163.79,12.35h-5.74a4,4,0,0,0,.4,1.76,2.67,2.67,0,0,0,2.48,1.53,3.6,3.6,0,0,0,1-.12,2.9,2.9,0,0,0,.84-.39,6.1,6.1,0,0,0,.75-.56c.23-.2.53-.47.9-.82a.94.94,0,0,1,.64-.19,1,1,0,0,1,.73.25.87.87,0,0,1,.28.7,1.91,1.91,0,0,1-.31.93,3.83,3.83,0,0,1-.94,1,5.7,5.7,0,0,1-1.58.81,6.92,6.92,0,0,1-2.19.32A5.87,5.87,0,0,1,156.62,16a6,6,0,0,1-1.57-4.37,7.31,7.31,0,0,1,.39-2.42,5.25,5.25,0,0,1,1.13-1.9,4.83,4.83,0,0,1,1.82-1.22,6.67,6.67,0,0,1,2.41-.43,5.76,5.76,0,0,1,2.95.73,4.78,4.78,0,0,1,1.84,1.87,4.92,4.92,0,0,1,.61,2.34q0,1.11-.63,1.44A3.92,3.92,0,0,1,163.79,12.35Zm-5.74-1.67h5.32a3.68,3.68,0,0,0-.81-2.25,2.43,2.43,0,0,0-1.86-.75,2.37,2.37,0,0,0-1.8.76A3.77,3.77,0,0,0,158.05,10.68Z" transform="translate(-1.3 -1.3)"/><path class="cls-1" d="M171.58,13.36v2.45a1.91,1.91,0,0,1-.41,1.33,1.4,1.4,0,0,1-1.07.45,1.34,1.34,0,0,1-1-.45,1.94,1.94,0,0,1-.41-1.33V7.64c0-1.32.48-2,1.43-2a1.17,1.17,0,0,1,1,.46,2.48,2.48,0,0,1,.36,1.36,5.12,5.12,0,0,1,1.08-1.36A2.21,2.21,0,0,1,174,5.67a3.77,3.77,0,0,1,1.8.46,1.37,1.37,0,0,1,.87,1.22,1.23,1.23,0,0,1-1.17,1.24,3.84,3.84,0,0,1-.78-.2,3.72,3.72,0,0,0-1.09-.2,1.56,1.56,0,0,0-1,.34,2.09,2.09,0,0,0-.64,1,7.23,7.23,0,0,0-.31,1.59C171.61,11.73,171.58,12.48,171.58,13.36Z" transform="translate(-1.3 -1.3)"/><path class="cls-1" d="M187.2,13.75a3.4,3.4,0,0,1-2.33,3.39,7.77,7.77,0,0,1-2.81.45,6.88,6.88,0,0,1-2.71-.48,4,4,0,0,1-1.66-1.21,2.45,2.45,0,0,1-.54-1.46,1.13,1.13,0,0,1,.34-.83,1.22,1.22,0,0,1,.87-.34,1,1,0,0,1,.71.23,2.35,2.35,0,0,1,.47.63,3.32,3.32,0,0,0,1.08,1.17,3.25,3.25,0,0,0,1.72.39,2.47,2.47,0,0,0,1.44-.39,1.11,1.11,0,0,0,.57-.9,1.23,1.23,0,0,0-.59-1.13,7.22,7.22,0,0,0-1.93-.68,15.24,15.24,0,0,1-2.46-.79,3.86,3.86,0,0,1-1.52-1.09,2.48,2.48,0,0,1-.57-1.66,3,3,0,0,1,.52-1.67,3.6,3.6,0,0,1,1.56-1.25,6,6,0,0,1,2.47-.46,8.09,8.09,0,0,1,2,.23,5,5,0,0,1,1.51.64,2.93,2.93,0,0,1,.93.88,1.7,1.7,0,0,1,.31.94,1.09,1.09,0,0,1-.34.83,1.34,1.34,0,0,1-1,.32,1.17,1.17,0,0,1-.76-.26,4.61,4.61,0,0,1-.73-.77,2.56,2.56,0,0,0-.78-.69,2.5,2.5,0,0,0-1.23-.26,2.44,2.44,0,0,0-1.32.34,1,1,0,0,0-.53.85.9.9,0,0,0,.39.75,3.25,3.25,0,0,0,1,.49c.44.13,1,.29,1.81.47a10,10,0,0,1,2.23.8,3.8,3.8,0,0,1,1.31,1.09A2.47,2.47,0,0,1,187.2,13.75Z" transform="translate(-1.3 -1.3)"/></svg>